# xmcd
#
# Track frame offsets: 
#        150
#        21677
#        41260
#        82350
#        97802
#        112802
#        144150
#        163877
#        185852
#        200775
#        219450
#        232425
#
# Disc length: 3313 seconds
#
# Revision: 0
# Processed by: cddbd v1.4PL0 Copyright (c) Steve Scherf et al.
# Submitted via: ExactAudioCopy v0.95a3
#
DISCID=b40cef0c
DTITLE=Claudio Gabis - Convocatoria - CD 1
DYEAR=1900
DGENRE=Blues
TTITLE0=Jugo de tomate
TTITLE1=Nena boba
TTITLE2=Avellaneda blues
TTITLE3=Blues del corazón destrozado
TTITLE4=Rock de la mujer perdida
TTITLE5=Blues de un domingo lluvioso
TTITLE6=No pibe
TTITLE7=El vuelo de tu falda
TTITLE8=Negro como un blues
TTITLE9=Estuve en la tierra
TTITLE10=Avenida Rivadavia
TTITLE11=Buenos Aires blues
EXTD=
EXTT0=
EXTT1=
EXTT2=
EXTT3=
EXTT4=
EXTT5=
EXTT6=
EXTT7=
EXTT8=
EXTT9=
EXTT10=
EXTT11=
PLAYORDER=
